<svg width="32" height="32" viewBox="0 0 32 32" fill="none" xmlns="http://www.w3.org/2000/svg">
<path d="M18.8947 6.21103C18.5624 6.04494 18.1904 5.97468 17.8204 6.00812C17.4505 6.04156 17.0971 6.17738 16.8 6.40036L8 12.0004H4C3.46957 12.0004 2.96086 12.2111 2.58579 12.5861C2.21071 12.9612 2 13.4699 2 14.0004V18.0004C2 18.5308 2.21071 19.0395 2.58579 19.4146C2.96086 19.7896 3.46957 20.0004 4 20.0004H8L16.8 25.6004C17.0971 25.8232 17.4505 25.9589 17.8204 25.9923C18.1903 26.0256 18.5622 25.9553 18.8944 25.7892C19.2266 25.6231 19.506 25.3678 19.7013 25.0518C19.8966 24.7359 20 24.3718 20 24.0004V8.00036C20.0001 7.62888 19.8968 7.26471 19.7015 6.94867C19.5063 6.63263 19.2269 6.3772 18.8947 6.21103Z" stroke="#F8F8F8" stroke-width="1.5" stroke-linecap="round" stroke-linejoin="round"/>
<path d="M28.6172 20.9999C29.5193 19.586 29.9986 17.9437 29.9986 16.2665C29.9986 14.5894 29.5193 12.9471 28.6172 11.5332" stroke="#F8F8F8" stroke-width="1.5" stroke-linecap="round" stroke-linejoin="round"/>
<path d="M24.7495 19.2542C25.4239 18.4241 25.792 17.3871 25.792 16.3175C25.792 15.248 25.4239 14.211 24.7495 13.3809" stroke="#F8F8F8" stroke-width="1.5" stroke-linecap="round" stroke-linejoin="round"/>
<path d="M8 12V20" stroke="#F8F8F8" stroke-width="1.5" stroke-linecap="round" stroke-linejoin="round"/>
</svg>
