<svg width="50" height="51" viewBox="0 0 50 51" fill="none" xmlns="http://www.w3.org/2000/svg">
<g filter="url(#filter0_d_787_4098)">
<rect x="4" y="3" width="40" height="40" rx="8" fill="#6000A1" fill-opacity="0.5" shape-rendering="crispEdges"/>
<path d="M26.7459 15.1754C26.469 15.037 26.159 14.9784 25.8507 15.0063C25.5424 15.0341 25.2479 15.1473 25.0003 15.3331L17.667 19.9998H14.3337C13.8916 19.9998 13.4677 20.1754 13.1551 20.488C12.8426 20.8005 12.667 21.2245 12.667 21.6665V24.9998C12.667 25.4418 12.8426 25.8658 13.1551 26.1783C13.4677 26.4909 13.8916 26.6665 14.3337 26.6665H17.667L25.0003 31.3331C25.2479 31.5189 25.5424 31.6319 25.8507 31.6597C26.1589 31.6875 26.4688 31.6289 26.7457 31.4905C27.0225 31.3521 27.2554 31.1393 27.4181 30.876C27.5808 30.6127 27.667 30.3093 27.667 29.9998V16.6665C27.6671 16.3569 27.581 16.0534 27.4183 15.7901C27.2556 15.5267 27.0227 15.3138 26.7459 15.1754Z" stroke="#F8F8F8" stroke-width="1.25" stroke-linecap="round" stroke-linejoin="round"/>
<path d="M34.8477 27.5002C35.5994 26.322 35.9988 24.9534 35.9988 23.5558C35.9988 22.1581 35.5994 20.7896 34.8477 19.6113" stroke="#F8F8F8" stroke-width="1.25" stroke-linecap="round" stroke-linejoin="round"/>
<path d="M31.624 26.0453C32.186 25.3535 32.4928 24.4894 32.4928 23.5981C32.4928 22.7068 32.186 21.8427 31.624 21.1509" stroke="#F8F8F8" stroke-width="1.25" stroke-linecap="round" stroke-linejoin="round"/>
<path d="M17.667 20V26.6667" stroke="#F8F8F8" stroke-width="1.25" stroke-linecap="round" stroke-linejoin="round"/>
</g>
<defs>
<filter id="filter0_d_787_4098" x="0" y="0.5" width="50" height="50" filterUnits="userSpaceOnUse" color-interpolation-filters="sRGB">
<feFlood flood-opacity="0" result="BackgroundImageFix"/>
<feColorMatrix in="SourceAlpha" type="matrix" values="0 0 0 0 0 0 0 0 0 0 0 0 0 0 0 0 0 0 127 0" result="hardAlpha"/>
<feOffset dx="1" dy="2.5"/>
<feGaussianBlur stdDeviation="2.5"/>
<feComposite in2="hardAlpha" operator="out"/>
<feColorMatrix type="matrix" values="0 0 0 0 0.311686 0 0 0 0 0.311686 0 0 0 0 0.311686 0 0 0 0.25 0"/>
<feBlend mode="normal" in2="BackgroundImageFix" result="effect1_dropShadow_787_4098"/>
<feBlend mode="normal" in="SourceGraphic" in2="effect1_dropShadow_787_4098" result="shape"/>
</filter>
</defs>
</svg>
