<svg width="32" height="32" viewBox="0 0 32 32" fill="none" xmlns="http://www.w3.org/2000/svg">
<path d="M28 16C28 22.6274 22.6274 28 16 28C9.37258 28 4 22.6274 4 16C4 9.37258 9.37258 4 16 4C22.6274 4 28 9.37258 28 16Z" fill="url(#paint0_linear_721_530)"/>
<path d="M20.4689 19.6699L21.0019 16.2829H17.6673V14.086C17.6673 13.1592 18.1323 12.2552 19.6258 12.2552H21.1429V9.37171C21.1429 9.37171 19.7667 9.14286 18.4517 9.14286C15.7041 9.14286 13.91 10.7654 13.91 13.7015V16.2829H10.8571V19.6699H13.91V27.8581C14.5229 27.952 15.1499 28 15.7887 28C16.4274 28 17.0544 27.952 17.6673 27.8581V19.6699H20.4689Z" fill="white"/>
<defs>
<linearGradient id="paint0_linear_721_530" x1="16" y1="4" x2="16" y2="27.9288" gradientUnits="userSpaceOnUse">
<stop stop-color="#18ACFE"/>
<stop offset="1" stop-color="#0163E0"/>
</linearGradient>
</defs>
</svg>
