<svg width="32" height="32" viewBox="0 0 32 32" fill="none" xmlns="http://www.w3.org/2000/svg">
<path d="M4 12.2286C4 9.3483 4 7.90817 4.56054 6.80805C5.0536 5.84036 5.84036 5.0536 6.80805 4.56054C7.90817 4 9.3483 4 12.2286 4H19.7714C22.6517 4 24.0918 4 25.192 4.56054C26.1596 5.0536 26.9464 5.84036 27.4395 6.80805C28 7.90817 28 9.3483 28 12.2286V19.7714C28 22.6517 28 24.0918 27.4395 25.192C26.9464 26.1596 26.1596 26.9464 25.192 27.4395C24.0918 28 22.6517 28 19.7714 28H12.2286C9.3483 28 7.90817 28 6.80805 27.4395C5.84036 26.9464 5.0536 26.1596 4.56054 25.192C4 24.0918 4 22.6517 4 19.7714V12.2286Z" fill="url(#paint0_radial_721_532)"/>
<path d="M4 12.2286C4 9.3483 4 7.90817 4.56054 6.80805C5.0536 5.84036 5.84036 5.0536 6.80805 4.56054C7.90817 4 9.3483 4 12.2286 4H19.7714C22.6517 4 24.0918 4 25.192 4.56054C26.1596 5.0536 26.9464 5.84036 27.4395 6.80805C28 7.90817 28 9.3483 28 12.2286V19.7714C28 22.6517 28 24.0918 27.4395 25.192C26.9464 26.1596 26.1596 26.9464 25.192 27.4395C24.0918 28 22.6517 28 19.7714 28H12.2286C9.3483 28 7.90817 28 6.80805 27.4395C5.84036 26.9464 5.0536 26.1596 4.56054 25.192C4 24.0918 4 22.6517 4 19.7714V12.2286Z" fill="url(#paint1_radial_721_532)"/>
<path d="M4 12.2286C4 9.3483 4 7.90817 4.56054 6.80805C5.0536 5.84036 5.84036 5.0536 6.80805 4.56054C7.90817 4 9.3483 4 12.2286 4H19.7714C22.6517 4 24.0918 4 25.192 4.56054C26.1596 5.0536 26.9464 5.84036 27.4395 6.80805C28 7.90817 28 9.3483 28 12.2286V19.7714C28 22.6517 28 24.0918 27.4395 25.192C26.9464 26.1596 26.1596 26.9464 25.192 27.4395C24.0918 28 22.6517 28 19.7714 28H12.2286C9.3483 28 7.90817 28 6.80805 27.4395C5.84036 26.9464 5.0536 26.1596 4.56054 25.192C4 24.0918 4 22.6517 4 19.7714V12.2286Z" fill="url(#paint2_radial_721_532)"/>
<path d="M22 11.2857C22 11.9958 21.4244 12.5714 20.7143 12.5714C20.0042 12.5714 19.4286 11.9958 19.4286 11.2857C19.4286 10.5756 20.0042 10 20.7143 10C21.4244 10 22 10.5756 22 11.2857Z" fill="white"/>
<path fill-rule="evenodd" clip-rule="evenodd" d="M16 20.2857C18.3669 20.2857 20.2857 18.3669 20.2857 16C20.2857 13.6331 18.3669 11.7143 16 11.7143C13.6331 11.7143 11.7143 13.6331 11.7143 16C11.7143 18.3669 13.6331 20.2857 16 20.2857ZM16 18.5714C17.4202 18.5714 18.5714 17.4202 18.5714 16C18.5714 14.5798 17.4202 13.4286 16 13.4286C14.5798 13.4286 13.4286 14.5798 13.4286 16C13.4286 17.4202 14.5798 18.5714 16 18.5714Z" fill="white"/>
<path fill-rule="evenodd" clip-rule="evenodd" d="M7.42857 15.6571C7.42857 12.7769 7.42857 11.3367 7.98911 10.2366C8.48217 9.26893 9.26893 8.48217 10.2366 7.98911C11.3367 7.42857 12.7769 7.42857 15.6571 7.42857H16.3429C19.2231 7.42857 20.6633 7.42857 21.7634 7.98911C22.7311 8.48217 23.5178 9.26893 24.0109 10.2366C24.5714 11.3367 24.5714 12.7769 24.5714 15.6571V16.3429C24.5714 19.2231 24.5714 20.6633 24.0109 21.7634C23.5178 22.7311 22.7311 23.5178 21.7634 24.0109C20.6633 24.5714 19.2231 24.5714 16.3429 24.5714H15.6571C12.7769 24.5714 11.3367 24.5714 10.2366 24.0109C9.26893 23.5178 8.48217 22.7311 7.98911 21.7634C7.42857 20.6633 7.42857 19.2231 7.42857 16.3429V15.6571ZM15.6571 9.14286H16.3429C17.8113 9.14286 18.8095 9.14419 19.5811 9.20723C20.3326 9.26864 20.717 9.37994 20.9851 9.51655C21.6302 9.84526 22.1547 10.3698 22.4835 11.0149C22.6201 11.283 22.7314 11.6674 22.7928 12.4189C22.8558 13.1905 22.8571 14.1887 22.8571 15.6571V16.3429C22.8571 17.8113 22.8558 18.8095 22.7928 19.5811C22.7314 20.3326 22.6201 20.717 22.4835 20.9851C22.1547 21.6302 21.6302 22.1547 20.9851 22.4835C20.717 22.6201 20.3326 22.7314 19.5811 22.7928C18.8095 22.8558 17.8113 22.8571 16.3429 22.8571H15.6571C14.1887 22.8571 13.1905 22.8558 12.4189 22.7928C11.6674 22.7314 11.283 22.6201 11.0149 22.4835C10.3698 22.1547 9.84526 21.6302 9.51655 20.9851C9.37994 20.717 9.26864 20.3326 9.20723 19.5811C9.14419 18.8095 9.14286 17.8113 9.14286 16.3429V15.6571C9.14286 14.1887 9.14419 13.1905 9.20723 12.4189C9.26864 11.6674 9.37994 11.283 9.51655 11.0149C9.84526 10.3698 10.3698 9.84526 11.0149 9.51655C11.283 9.37994 11.6674 9.26864 12.4189 9.20723C13.1905 9.14419 14.1887 9.14286 15.6571 9.14286Z" fill="white"/>
<defs>
<radialGradient id="paint0_radial_721_532" cx="0" cy="0" r="1" gradientUnits="userSpaceOnUse" gradientTransform="translate(12.5714 22) rotate(-55.3758) scale(21.8739)">
<stop stop-color="#B13589"/>
<stop offset="0.79309" stop-color="#C62F94"/>
<stop offset="1" stop-color="#8A3AC8"/>
</radialGradient>
<radialGradient id="paint1_radial_721_532" cx="0" cy="0" r="1" gradientUnits="userSpaceOnUse" gradientTransform="translate(11.7143 28.8571) rotate(-65.1363) scale(19.3665)">
<stop stop-color="#E0E8B7"/>
<stop offset="0.444662" stop-color="#FB8A2E"/>
<stop offset="0.71474" stop-color="#E2425C"/>
<stop offset="1" stop-color="#E2425C" stop-opacity="0"/>
</radialGradient>
<radialGradient id="paint2_radial_721_532" cx="0" cy="0" r="1" gradientUnits="userSpaceOnUse" gradientTransform="translate(2.71429 4.85714) rotate(-8.1301) scale(33.335 7.13002)">
<stop offset="0.156701" stop-color="#406ADC"/>
<stop offset="0.467799" stop-color="#6A45BE"/>
<stop offset="1" stop-color="#6A45BE" stop-opacity="0"/>
</radialGradient>
</defs>
</svg>
