<svg width="64" height="64" viewBox="0 0 64 64" fill="none" xmlns="http://www.w3.org/2000/svg">
<path d="M16.3696 29.8998C16.1596 29.6898 3.37462 26.8748 3.37462 26.8748C3.37462 26.8748 2.62962 28.0698 2.84462 28.7748C2.96462 29.1698 5.75462 32.4148 8.62462 35.3998C10.8896 37.7598 13.4646 40.1598 13.8396 41.5298C14.4146 43.6398 14.4746 47.0248 14.4746 47.0248L6.13962 52.1148C6.13962 52.1148 7.15962 57.3048 13.7696 57.0998C19.9446 56.9098 20.2646 50.3698 22.2246 50.3348C22.5546 50.3298 23.0096 50.2148 23.8246 51.0898C25.8446 53.2598 29.6246 57.4498 30.8896 58.7198C32.5796 60.4098 33.7796 62.0998 34.4146 62.0298C35.0496 61.9598 40.4046 57.1698 41.9546 55.6898C43.5046 54.2098 44.9146 52.4498 44.9146 50.9698C44.9146 49.4898 42.7296 48.3648 42.7296 48.3648L30.6796 49.7748L16.3696 29.8998ZM51.8096 10.8098C52.0196 10.8098 57.3746 8.13477 57.3746 8.13477C57.3746 8.13477 60.1246 13.6998 56.5996 16.8698C53.0746 20.0398 52.2996 18.2448 50.6096 20.1098C49.3196 21.5348 49.9746 24.4798 49.9746 24.4798L60.4496 34.5498C60.4496 34.5498 61.0346 35.6148 60.6146 36.3898C60.3146 36.9398 56.7896 40.8848 54.0596 43.7198C52.8296 44.9948 51.1146 45.4248 50.1846 45.1998C47.8596 44.6348 47.5096 42.8048 47.0846 39.5648C46.6596 36.3248 43.8696 36.3748 42.8546 36.5348C40.7146 36.8748 39.3196 38.1248 39.3196 38.1248C39.3196 38.1248 26.7196 22.9398 26.8596 22.5148C26.9996 22.0898 27.4946 18.9198 26.0146 17.5848C24.5346 16.2448 21.5796 15.5648 20.4496 14.7898C19.3246 14.0148 19.1746 12.5398 19.3796 11.1098C19.5846 9.67977 28.6946 9.69477 28.6946 9.69477C28.6946 9.69477 44.4046 18.3598 44.4796 18.0098C44.5496 17.6398 51.8096 10.8098 51.8096 10.8098Z" fill="#B0B0AF"/>
<path d="M44.06 12.495C44.44 11.105 44.005 7.68998 46.66 5.42998C49.315 3.16998 53.445 3.44998 55.93 5.82498C58.415 8.19998 58.815 12.665 55.875 15.605C52.935 18.545 51.58 16.905 49.94 18.49C48.3 20.075 48.585 21.375 49.6 22.335C50.62 23.295 60.74 33.87 60.455 34.545C60.17 35.22 53.275 43.025 52.145 43.59C51.015 44.155 49.035 44.1 48.64 42.235C48.245 40.37 48.925 36.64 46.095 35.675C43.27 34.715 42.025 35.505 39.255 38.445C36.485 41.385 35.24 44.605 37.5 46.245C39.76 47.885 42.59 47.205 43.72 49.13C44.85 51.055 43.155 52.805 40.16 55.575C37.165 58.345 34.845 60.605 34.45 60.325C34.055 60.04 25.46 50.94 24.615 49.98C23.765 49.02 22.125 48.17 20.545 49.64C18.96 51.11 18.68 55.915 12.01 55.915C5.34003 55.915 4.54003 48.68 6.91503 45.685C9.29003 42.69 14.545 42.405 14.66 40.37C14.71 39.435 11.825 36.915 9.23503 34.21C6.19003 31.025 3.36003 27.65 3.24003 27.255C3.01503 26.52 9.57003 20.075 10.815 19.17C12.06 18.265 13.47 18.83 14.15 19.565C14.83 20.3 15 22.56 15.565 23.86C16.13 25.16 18.785 30.815 25.175 24.37C31.505 17.98 25.515 15.21 23.48 14.645C21.445 14.08 19.98 13.895 19.41 11.82C18.96 10.18 21.445 8.25998 24.045 5.76998C26.645 3.27998 28.17 1.97998 28.85 1.97998C29.53 1.97998 38.63 11.76 39.82 12.89C41.01 14.02 41.74 14.305 42.59 14.075C43.435 13.855 43.89 13.12 44.06 12.495Z" fill="url(#paint0_radial_787_4065)"/>
<defs>
<radialGradient id="paint0_radial_787_4065" cx="0" cy="0" r="1" gradientUnits="userSpaceOnUse" gradientTransform="translate(31.086 -14.15) scale(59.6125 59.6125)">
<stop offset="0.508" stop-color="#B7D118"/>
<stop offset="0.572" stop-color="#B2D019"/>
<stop offset="0.643" stop-color="#A5CD1D"/>
<stop offset="0.717" stop-color="#8FC922"/>
<stop offset="0.793" stop-color="#70C22A"/>
<stop offset="0.871" stop-color="#48BA34"/>
<stop offset="0.949" stop-color="#18B040"/>
<stop offset="0.981" stop-color="#02AB46"/>
</radialGradient>
</defs>
</svg>
