<svg width="32" height="32" viewBox="0 0 32 32" fill="none" xmlns="http://www.w3.org/2000/svg">
<path fill-rule="evenodd" clip-rule="evenodd" d="M12.9507 15.7197L20.4197 23.1894C20.7126 23.4823 20.7126 23.9571 20.4197 24.25C20.1267 24.5429 19.6519 24.5429 19.359 24.25L11.737 16.6273C11.7368 16.6271 11.7367 16.627 11.7366 16.6269C11.6175 16.5078 11.523 16.3665 11.4585 16.2109C11.3939 16.0552 11.3607 15.8883 11.3607 15.7197C11.3607 15.5511 11.3939 15.3841 11.4585 15.2284C11.523 15.0727 11.6176 14.9313 11.7369 14.8122C11.7369 14.8121 11.7369 14.8121 11.737 14.8121L19.359 7.18936C19.6519 6.89645 20.1267 6.89643 20.4197 7.18931C20.7126 7.48219 20.7126 7.95707 20.4197 8.24997L12.9507 15.7197Z" fill="#4A566D"/>
</svg>
