<svg width="64" height="64" viewBox="0 0 64 64" fill="none" xmlns="http://www.w3.org/2000/svg">
<path d="M6.20312 57.4769C6.20312 57.4769 8.03112 64.5049 19.4631 62.7049L21.4121 57.9999L18.1231 54.4269L9.01812 51.4219L6.20612 57.4769" fill="#34484C"/>
<path d="M42.635 44.305C42.635 46.795 41.353 47.451 38.123 48.816L10.515 60.471C9.31799 60.4713 8.16988 59.9961 7.32318 59.1499C6.47648 58.3038 6.00053 57.156 6 55.959V17.166C6 14.673 7.466 13.846 10.515 12.655L38.123 1C39.3197 1.00027 40.4674 1.47586 41.3135 2.32218C42.1597 3.1685 42.635 4.31625 42.635 5.513V44.305Z" fill="#78111F"/>
<path d="M8.51074 59.9978C8.51074 59.9978 18.8587 62.9638 19.4617 62.7078C20.0657 62.4528 19.0757 58.2238 19.0757 58.2238L15.3327 54.1888L11.8517 54.0278L11.2377 54.8988L8.51074 59.9978Z" fill="#34484C"/>
<path d="M37.4717 3.68408L6.84766 16.5511L8.28366 24.7981L12.8437 25.2521L28.0577 22.8051L37.5157 17.8461L44.4777 8.31108C42.9557 5.58308 40.7207 3.89108 37.4717 3.68408Z" fill="#F4F5F5"/>
<path d="M14.9597 19.4048C14.9597 18.6848 15.0887 18.1048 15.3327 17.6128C12.2017 17.3208 9.2427 16.4138 7.0827 14.4668C6.3677 15.1278 6.0127 15.9468 6.0127 17.1678V55.9608C6.01296 57.1575 6.48855 58.3052 7.33488 59.1513C8.1812 59.9975 9.32895 60.4728 10.5257 60.4728L14.9797 58.5908C14.9672 58.4608 14.9605 58.3304 14.9597 58.1998V19.4048Z" fill="#34484C"/>
<path d="M52.3842 48.1278C52.3842 50.6188 51.1022 51.2718 47.8722 52.6378L19.4602 62.7068C18.2644 62.7068 17.1176 62.2319 16.2719 61.3865C15.4261 60.5412 14.9507 59.3946 14.9502 58.1988V19.4048C14.9502 16.9138 16.4132 16.0848 19.4602 14.8948L47.8722 4.82178C50.3622 4.82178 52.3842 6.84178 52.3842 9.33378V48.1278Z" fill="#BE202E"/>
<path d="M40.6195 16.6612C40.6776 16.8124 40.6734 16.9804 40.6078 17.1285C40.5421 17.2766 40.4205 17.3926 40.2695 17.4512L25.1635 23.2742C25.0889 23.303 25.0093 23.3168 24.9293 23.3149C24.8493 23.313 24.7704 23.2953 24.6972 23.2629C24.6241 23.2305 24.558 23.184 24.5028 23.126C24.4476 23.0681 24.4043 22.9998 24.3755 22.9252C24.3467 22.8505 24.3329 22.7709 24.3348 22.6909C24.3367 22.6109 24.3544 22.5321 24.3868 22.4589C24.4192 22.3857 24.4657 22.3197 24.5237 22.2645C24.5816 22.2093 24.6499 22.166 24.7245 22.1372L39.8315 16.3152C39.9061 16.286 39.9857 16.2719 40.0657 16.2736C40.1458 16.2753 40.2247 16.2928 40.298 16.3252C40.3712 16.3575 40.4373 16.404 40.4925 16.462C40.5477 16.5201 40.5909 16.5884 40.6195 16.6632M40.6195 19.4372C40.6776 19.5884 40.6734 19.7564 40.6078 19.9045C40.5421 20.0526 40.4205 20.1686 40.2695 20.2272L25.1635 26.0492C25.0884 26.08 25.0079 26.0954 24.9268 26.0947C24.8456 26.094 24.7654 26.077 24.6909 26.0449C24.6163 26.0128 24.5489 25.9661 24.4927 25.9076C24.4364 25.8491 24.3924 25.78 24.3631 25.7043C24.3339 25.6285 24.3201 25.5477 24.3225 25.4666C24.3249 25.3855 24.3435 25.3056 24.3772 25.2318C24.4108 25.1579 24.4589 25.0915 24.5185 25.0365C24.5782 24.9814 24.6482 24.9388 24.7245 24.9112L39.8315 19.0882C39.9061 19.0589 39.9858 19.0447 40.066 19.0464C40.1461 19.0481 40.2251 19.0657 40.2984 19.0982C40.3717 19.1306 40.4378 19.1773 40.4929 19.2355C40.548 19.2937 40.5911 19.3622 40.6195 19.4372ZM35.4845 24.2992C35.6055 24.6122 35.5315 24.9332 35.3165 25.0162L24.9995 28.9942C24.7845 29.0772 24.5115 28.8892 24.3905 28.5752C24.2705 28.2622 24.3465 27.9372 24.5605 27.8552L34.8775 23.8772C35.0935 23.7952 35.3635 23.9812 35.4845 24.2992Z" fill="#78111F"/>
</svg>
