<svg width="32" height="32" viewBox="0 0 32 32" fill="none" xmlns="http://www.w3.org/2000/svg">
<path d="M4 16C4 9.37258 9.37258 4 16 4C22.6274 4 28 9.37258 28 16C28 22.6274 22.6274 28 16 28C9.37258 28 4 22.6274 4 16Z" fill="#1275B1"/>
<path d="M13.1016 10.5933C13.1016 11.3943 12.4073 12.0437 11.5508 12.0437C10.6943 12.0437 10 11.3943 10 10.5933C10 9.79223 10.6943 9.14286 11.5508 9.14286C12.4073 9.14286 13.1016 9.79223 13.1016 10.5933Z" fill="white"/>
<path d="M10.2121 13.1098H12.863V21.1429H10.2121V13.1098Z" fill="white"/>
<path d="M17.1311 13.1098H14.4801V21.1429H17.1311C17.1311 21.1429 17.1311 18.6139 17.1311 17.0327C17.1311 16.0837 17.4551 15.1305 18.7482 15.1305C20.2094 15.1305 20.2006 16.3725 20.1938 17.3347C20.1849 18.5924 20.2062 19.8759 20.2062 21.1429H22.8571V16.9032C22.8347 14.196 22.1293 12.9486 19.8085 12.9486C18.4303 12.9486 17.576 13.5743 17.1311 14.1404V13.1098Z" fill="white"/>
</svg>
