<svg width="154" height="52" viewBox="0 0 154 52" fill="none" xmlns="http://www.w3.org/2000/svg">
<g clip-path="url(#clip0_702_2040)">
<path d="M56.4598 18.9093C57.5277 20.0208 58.0617 21.3596 58.0617 22.9284V42.2378H54.4221V39.4438C54.2926 40.7509 53.9196 41.6246 53.3058 42.066C52.6907 42.5074 52.0926 42.7281 51.5102 42.7281C50.0222 42.7281 48.9059 42.1968 48.1613 41.1355C47.4166 40.0743 47.0449 38.709 47.0449 37.0437V32.6822C47.0449 31.2126 47.5789 29.9953 48.6468 29.0305C49.7147 28.067 51.0077 27.5529 52.5284 27.4868H54.4208V22.9284C54.4208 22.4064 54.2337 21.957 53.8633 21.5803C53.4916 21.205 53.0454 21.0173 52.5284 21.0173C52.0115 21.0173 51.5744 21.2063 51.2184 21.5803C50.8624 21.9557 50.6844 22.4064 50.6844 22.9284V26.2114H47.0449V22.9284C47.0449 21.3596 47.571 20.0208 48.6219 18.9093C49.6728 17.7991 50.975 17.2427 52.5284 17.2427C54.0819 17.2427 55.3919 17.7991 56.4598 18.9093ZM54.4221 30.7698H52.5297C52.0115 30.7698 51.5757 30.9588 51.2197 31.3328C50.8637 31.7082 50.6858 32.1589 50.6858 32.6809V37.0424C50.6858 37.5658 50.8716 38.0151 51.2433 38.3905C51.6149 38.7658 52.0599 38.9535 52.5782 38.9535C53.0964 38.9535 53.5322 38.7658 53.8882 38.3905C54.2441 38.0151 54.4221 37.5658 54.4221 37.0424V30.7698Z" fill="#F8F8F8"/>
<path d="M61.2637 17.733H64.0303L64.5158 20.527C64.6454 19.2212 65.1388 18.3463 65.996 17.9048C66.8532 17.4634 67.6541 17.2427 68.3988 17.2427C71.117 17.2427 72.4754 19.1379 72.4754 22.9271V37.0411C72.4754 38.7077 72.0867 40.0716 71.3107 41.1329C70.5346 42.1955 69.4012 42.7255 67.9132 42.7255C67.3309 42.7255 66.7315 42.5048 66.1177 42.0633C65.5026 41.6219 65.1309 40.7483 65.0014 39.4412V51.4973H61.265V17.7304L61.2637 17.733ZM68.1789 38.3905C68.5506 38.0151 68.7364 37.5658 68.7364 37.0424V22.9284C68.7364 22.4064 68.5493 21.957 68.1789 21.5803C67.8072 21.205 67.361 21.0173 66.844 21.0173C66.3271 21.0173 65.8887 21.2063 65.534 21.5803C65.178 21.9557 65 22.4064 65 22.9284V37.0424C65 37.5658 65.178 38.0151 65.534 38.3905C65.89 38.7658 66.3258 38.9535 66.844 38.9535C67.3623 38.9535 67.8059 38.7658 68.1789 38.3905Z" fill="#F8F8F8"/>
<path d="M75.6777 17.733H78.4444L78.9299 20.527C79.0594 19.2212 79.5528 18.3463 80.41 17.9048C81.2672 17.4634 82.0682 17.2427 82.8128 17.2427C85.531 17.2427 86.8895 19.1379 86.8895 22.9271V37.0411C86.8895 38.7077 86.5008 40.0716 85.7247 41.1329C84.9486 42.1955 83.8153 42.7255 82.3273 42.7255C81.7449 42.7255 81.1455 42.5048 80.5317 42.0633C79.9167 41.6219 79.545 40.7483 79.4154 39.4412V51.4973H75.679V17.7304L75.6777 17.733ZM82.593 38.3905C82.9646 38.0151 83.1505 37.5658 83.1505 37.0424V22.9284C83.1505 22.4064 82.9633 21.957 82.593 21.5803C82.2213 21.205 81.775 21.0173 81.2581 21.0173C80.7411 21.0173 80.3027 21.2063 79.9481 21.5803C79.5921 21.9557 79.4141 22.4064 79.4141 22.9284V37.0424C79.4141 37.5658 79.5921 38.0151 79.9481 38.3905C80.304 38.7658 80.7398 38.9535 81.2581 38.9535C81.7763 38.9535 82.22 38.7658 82.593 38.3905Z" fill="#F8F8F8"/>
<path d="M89.7988 17.7332H93.051L93.5365 21.1642C93.6648 19.8584 94.0377 18.9583 94.6528 18.4693C95.2666 17.979 95.866 17.7345 96.4484 17.7345H98.8747V21.5567H94.9434C94.522 21.5567 94.183 21.8924 93.9239 22.5612C93.6648 23.2312 93.5352 24.1868 93.5352 25.4278V42.2379H89.7988V17.7332Z" fill="#F8F8F8"/>
<path d="M102.682 41.0615C101.63 39.9513 101.105 38.6112 101.105 37.0424V22.8782C101.105 21.3094 101.632 19.9785 102.682 18.8842C103.733 17.7898 105.036 17.2427 106.589 17.2427C108.142 17.2427 109.443 17.7898 110.495 18.8842C111.546 19.9798 112.072 21.3107 112.072 22.8782V30.9641H104.697V37.0411C104.697 37.5644 104.882 38.0138 105.254 38.3891C105.626 38.7645 106.071 38.9522 106.589 38.9522C107.107 38.9522 107.543 38.7645 107.899 38.3891C108.255 38.0138 108.433 37.5644 108.433 37.0411V33.4633H112.072V37.0411C112.072 38.6099 111.546 39.95 110.495 41.0602C109.443 42.1717 108.142 42.7268 106.589 42.7268C105.036 42.7268 103.733 42.1717 102.682 41.0602V41.0615ZM108.433 27.4855V22.8782C108.433 22.3562 108.255 21.9147 107.899 21.5552C107.543 21.1957 107.106 21.016 106.589 21.016C106.072 21.016 105.626 21.1957 105.254 21.5552C104.882 21.9147 104.697 22.3562 104.697 22.8782V27.4855H108.433Z" fill="#F8F8F8"/>
<path d="M114.887 17.733H117.653L118.139 20.527C118.268 19.2212 118.704 18.3463 119.449 17.9048C120.192 17.4634 120.888 17.2427 121.535 17.2427C123.023 17.2427 124.155 17.774 124.932 18.8353C125.708 19.8979 126.097 21.2618 126.097 22.9271V42.2365H122.361V22.9271C122.361 22.4051 122.174 21.9557 121.803 21.579C121.432 21.2037 120.985 21.016 120.468 21.016C119.951 21.016 119.513 21.205 119.158 21.579C118.802 21.9544 118.624 22.4051 118.624 22.9271V42.2365H114.888V17.7317L114.887 17.733Z" fill="#F8F8F8"/>
<path d="M130.173 41.1356C129.396 40.0743 129.008 38.7091 129.008 37.0438V22.9298C129.008 19.1407 130.366 17.2454 133.084 17.2454C133.731 17.2454 134.426 17.4661 135.171 17.9076C135.914 18.349 136.351 19.2226 136.481 20.5297V8.47095H140.217V42.2379H136.481V39.4439C136.351 40.751 135.978 41.6246 135.364 42.0661C134.749 42.5075 134.151 42.7282 133.569 42.7282C132.081 42.7282 130.949 42.1969 130.171 41.1356H130.173ZM135.948 38.3906C136.304 38.0152 136.482 37.5658 136.482 37.0425V22.9285C136.482 22.4065 136.304 21.9571 135.948 21.5804C135.592 21.2051 135.155 21.0174 134.638 21.0174C134.121 21.0174 133.675 21.2064 133.303 21.5804C132.931 21.9558 132.745 22.4065 132.745 22.9285V37.0425C132.745 37.5658 132.931 38.0152 133.303 38.3906C133.675 38.7659 134.12 38.9536 134.638 38.9536C135.156 38.9536 135.592 38.7659 135.948 38.3906Z" fill="#F8F8F8"/>
<path d="M144.61 41.0615C143.558 39.9513 143.033 38.6112 143.033 37.0424V22.8782C143.033 21.3094 143.559 19.9785 144.61 18.8842C145.661 17.7898 146.963 17.2427 148.517 17.2427C150.07 17.2427 151.371 17.7898 152.423 18.8842C153.474 19.9798 154 21.3107 154 22.8782V30.9641H146.624V37.0411C146.624 37.5644 146.81 38.0138 147.182 38.3891C147.553 38.7645 147.998 38.9522 148.517 38.9522C149.035 38.9522 149.471 38.7645 149.827 38.3891C150.183 38.0138 150.361 37.5644 150.361 37.0411V33.4633H154V37.0411C154 38.6099 153.474 39.95 152.423 41.0602C151.371 42.1717 150.07 42.7268 148.517 42.7268C146.963 42.7268 145.661 42.1717 144.61 41.0602V41.0615ZM150.361 27.4855V22.8782C150.361 22.3562 150.183 21.9147 149.827 21.5552C149.471 21.1957 149.034 21.016 148.517 21.016C148 21.016 147.553 21.1957 147.182 21.5552C146.81 21.9147 146.624 22.3562 146.624 22.8782V27.4855H150.361Z" fill="#F8F8F8"/>
<path d="M4.84223 50.4387C4.43391 50.4387 4.03737 50.2709 3.74946 49.9682C3.41181 49.614 3.26393 49.1157 3.35423 48.6373C3.61073 47.2773 4.76764 46.0482 6.7909 44.9856C8.79323 43.9335 11.658 43.0401 15.3394 42.3158C15.6757 41.9854 15.8851 41.77 15.9309 41.7211C22.3279 34.2683 24.6758 27.2397 22.9077 20.831C21.8987 17.17 18.9109 11.7129 10.4108 6.50031C6.5357 4.12398 2.87131 2.64505 1.29301 2.05823C2.35699 8.65196 4.89851 17.4026 10.9395 23.3818C13.9509 26.3621 16.9596 27.7102 18.1296 28.0076C18.4096 28.079 18.5798 28.3658 18.5104 28.6486C18.4411 28.9314 18.1571 29.1046 17.877 29.0345C17.7304 28.9975 14.2244 28.0895 10.2642 24.1946C7.95435 21.9227 5.96641 19.097 4.35539 15.7955C2.35045 11.6852 0.926568 6.82412 0.123019 1.34189L0 0.5L0.80224 0.761688C0.850662 0.777547 5.70467 2.38071 10.9356 5.5844C17.9058 9.85467 22.3947 15.0276 23.918 20.5455C25.7528 27.1961 23.4521 34.411 17.0787 41.9973C17.932 41.8519 18.8219 41.7131 19.7511 41.5836C19.9186 41.5625 35.7344 39.4994 40.0623 30.9218C41.8591 27.36 41.4312 23.1069 38.7889 18.2815C38.6881 18.1124 37.9369 16.7656 38.3492 14.9364C38.7457 13.1813 40.0544 11.59 42.2413 10.2062L46.6294 7.39771L40.625 9.66832C40.4353 9.74894 39.1226 10.2498 37.3061 9.56919C37.2525 9.54937 31.8135 7.56953 28.6647 10.0846C26.7304 11.6297 26.0106 14.5835 26.525 18.8631C26.5603 19.1525 26.3548 19.4168 26.0682 19.4512C25.7803 19.4869 25.5199 19.2794 25.4858 18.9899C24.9244 14.3179 25.7777 11.0415 28.0195 9.252C29.5285 8.04797 31.6839 7.55367 34.2542 7.81932C36.1571 8.01625 37.6111 8.55416 37.6713 8.57663C39.171 9.13833 40.1774 8.71144 40.2193 8.69293L40.2481 8.68104L51.3538 4.48214L51.575 4.913C51.6967 5.16015 51.6143 5.45885 51.3839 5.60687L42.8014 11.0997C37.7 14.3311 39.6042 17.5996 39.688 17.737L39.7011 17.7608C42.5279 22.9166 42.9624 27.5067 40.9954 31.4042C39.0624 35.2344 34.9112 38.2887 28.6569 40.4853C24.045 42.1044 20.0547 42.6119 19.8872 42.633C18.4083 42.8392 17.0682 43.0599 15.855 43.2912C13.8632 45.234 8.788 49.8585 5.06733 50.4229C4.99273 50.4334 4.91945 50.44 4.84485 50.44L4.84223 50.4387ZM13.8776 43.7009C6.27527 45.4191 4.62368 47.5681 4.38418 48.8355C4.3567 48.9809 4.4012 49.1263 4.50589 49.236C4.61321 49.3483 4.76109 49.3999 4.91028 49.3774C7.71224 48.9518 11.5468 45.8275 13.8789 43.7009H13.8776Z" fill="url(#paint0_linear_702_2040)"/>
</g>
<defs>
<linearGradient id="paint0_linear_702_2040" x1="-5.32657" y1="12.4101" x2="40.4085" y2="32.8908" gradientUnits="userSpaceOnUse">
<stop stop-color="#6000A1"/>
<stop offset="0.17" stop-color="#C135F8"/>
<stop offset="0.36" stop-color="#FF41BD"/>
<stop offset="0.52" stop-color="#00CAC6"/>
<stop offset="0.65" stop-color="#00AD74"/>
<stop offset="0.8" stop-color="#005F82"/>
<stop offset="1" stop-color="#002F60"/>
</linearGradient>
<clipPath id="clip0_702_2040">
<rect width="154" height="51" fill="white" transform="translate(0 0.5)"/>
</clipPath>
</defs>
</svg>
