<svg width="64" height="64" viewBox="0 0 64 64" fill="none" xmlns="http://www.w3.org/2000/svg">
<path d="M58 2H6C3.8 2 2 3.8 2 6V58C2 60.2 3.8 62 6 62H58C60.2 62 62 60.2 62 58V6C62 3.8 60.2 2 58 2Z" fill="#427687"/>
<path d="M54.85 2H5.75C3.7 2 2 3.7 2 5.75V54.7C2 56.8 3.7 58.45 5.75 58.45H54.8C56.9 58.45 58.55 56.75 58.55 54.7V5.75C58.65 3.7 56.9 2 54.85 2Z" fill="#8CAFBF"/>
<path opacity="0.5" d="M19.8498 6.45018C19.8498 5.30018 19.0498 4.95018 14.4498 5.10018C10.5998 5.25018 8.6998 5.70018 7.5498 7.10018C6.3998 8.50018 6.0998 11.3502 6.0498 14.7502C6.0498 17.1502 6.0498 19.4002 7.2998 19.4002C8.9998 19.4002 8.9998 15.4502 10.3998 13.2502C13.0998 8.90018 19.8498 7.95018 19.8498 6.45018Z" fill="#B4E1ED"/>
<path d="M19.0097 15.3901L16.3097 17.3551L14.5797 14.7101L19.8447 10.9151H22.4397V28.8301H19.0097V15.3901ZM37.0097 25.7101C40.6397 22.1151 42.8147 19.9201 43.5297 19.1351C44.1597 18.4551 44.5897 17.8851 44.8247 17.4351C45.0597 16.9801 45.1797 16.4651 45.1797 15.8901C45.1797 15.2801 44.9547 14.7651 44.4997 14.3451C44.0447 13.9251 43.4447 13.7151 42.6947 13.7151C41.9597 13.7151 41.3697 13.9251 40.9147 14.3451C40.4597 14.7651 40.1397 15.2901 39.9447 15.9151L36.8547 14.6301C37.0447 13.9501 37.3997 13.2901 37.9147 12.6551C38.4297 12.0201 39.0997 11.5001 39.9197 11.0951C40.7397 10.6951 41.6847 10.4951 42.7497 10.4951C43.9347 10.4951 44.9747 10.7251 45.8647 11.1901C46.7547 11.6551 47.4447 12.2801 47.9347 13.0751C48.4247 13.8701 48.6697 14.7551 48.6697 15.7351C48.6697 17.6751 47.7247 19.5701 45.8397 21.4201C45.0697 22.1701 43.6497 23.5851 41.5697 25.6651L41.6497 25.8201H48.8997V28.8301H37.0097V25.7101ZM16.8247 51.9551C15.6647 51.1501 14.8647 49.9801 14.4297 48.4451L17.6797 47.1601C17.8897 48.0151 18.2647 48.6751 18.8047 49.1401C19.3447 49.6051 20.0247 49.8351 20.8497 49.8351C21.5997 49.8351 22.2497 49.6101 22.7997 49.1551C23.3497 48.7001 23.6247 48.1251 23.6247 47.4251C23.6247 46.6751 23.3347 46.0751 22.7497 45.6301C22.1647 45.1851 21.3747 44.9601 20.3797 44.9601H18.8347V41.8451H20.2497C21.0197 41.8451 21.6697 41.6551 22.1997 41.2701C22.7297 40.8851 22.9997 40.3251 22.9997 39.5951C22.9997 39.0001 22.7797 38.5151 22.3447 38.1301C21.9097 37.7451 21.3497 37.5551 20.6697 37.5551C19.9547 37.5551 19.3797 37.7451 18.9397 38.1301C18.5047 38.5151 18.1997 38.9951 18.0247 39.5701L14.9097 38.2851C15.2747 37.2351 15.9547 36.3301 16.9397 35.5601C17.9247 34.7901 19.1797 34.4101 20.6997 34.4101C21.8147 34.4101 22.8147 34.6201 23.6997 35.0401C24.5797 35.4601 25.2647 36.0301 25.7547 36.7551C26.2447 37.4801 26.4897 38.2951 26.4897 39.2051C26.4897 40.1651 26.2647 40.9851 25.8197 41.6651C25.3747 42.3451 24.8397 42.8451 24.2097 43.1601V43.3701C25.0847 43.7201 25.7897 44.2701 26.3297 45.0201C26.8697 45.7701 27.1397 46.6801 27.1397 47.7451C27.1397 48.7751 26.8797 49.7001 26.3547 50.5201C25.8297 51.3401 25.0947 51.9851 24.1397 52.4601C23.1897 52.9301 22.0947 53.1651 20.8547 53.1651C19.3247 53.1601 17.9847 52.7551 16.8247 51.9551ZM45.1047 49.4401H36.8547V46.6651L44.8147 34.8301H48.5347V46.2501H50.7597V49.4451H48.5347V52.7451H45.1047V49.4401ZM45.1047 46.2451V39.9351H44.8947L40.6497 46.2451H45.1047Z" fill="#FAFAFA"/>
</svg>
