<svg width="206" height="206" viewBox="0 0 206 206" fill="none" xmlns="http://www.w3.org/2000/svg">
<rect width="206" height="206" rx="24" fill="url(#paint0_linear_881_41922)"/>
<path d="M55.068 160.586C54.1347 160.586 53.2283 160.204 52.5702 159.516C51.7984 158.71 51.4604 157.577 51.6668 156.489C52.2531 153.395 54.8975 150.6 59.5221 148.183C64.0988 145.79 70.6469 143.758 79.0615 142.11C79.8303 141.359 80.3089 140.869 80.4136 140.758C95.0353 123.806 100.402 107.82 96.3604 93.2431C94.0541 84.9161 87.2249 72.5039 67.7961 60.6478C58.9388 55.2428 50.563 51.8789 46.9554 50.5442C49.3874 65.5417 55.1966 85.4452 69.0046 99.0449C75.8877 105.824 82.7648 108.89 85.439 109.566C86.0792 109.729 86.4681 110.381 86.3095 111.024C86.151 111.668 85.5019 112.061 84.8617 111.902C84.5267 111.818 76.5129 109.753 67.4611 100.894C62.1814 95.7261 57.6375 89.2991 53.9552 81.7898C49.3724 72.4408 46.1179 61.3843 44.2812 48.9149L44 47L45.8337 47.5952C45.9444 47.6313 57.0393 51.2777 68.9956 58.5645C84.9275 68.2773 95.1878 80.0432 98.6697 92.5938C102.864 107.721 97.6048 124.131 83.037 141.386C84.9873 141.055 87.0215 140.74 89.1453 140.445C89.5282 140.397 125.679 135.704 135.571 116.195C139.678 108.093 138.7 98.4196 132.66 87.4443C132.43 87.0595 130.713 83.9963 131.655 79.8358C132.562 75.8437 135.553 72.2243 140.551 69.0769L150.581 62.6889L136.857 67.8534C136.423 68.0368 133.423 69.1761 129.271 67.628C129.148 67.5829 116.716 63.0797 109.519 68.8003C105.098 72.3145 103.453 79.0332 104.628 88.767C104.709 89.4253 104.24 90.0265 103.585 90.1047C102.926 90.1859 102.331 89.7139 102.253 89.0556C100.97 78.4289 102.92 70.9768 108.045 66.9065C111.494 64.1679 116.42 63.0436 122.295 63.6479C126.645 64.0958 129.968 65.3193 130.106 65.3704C133.534 66.648 135.834 65.677 135.93 65.6349L135.996 65.6079L161.38 56.0574L161.886 57.0374C162.164 57.5996 161.975 58.2789 161.449 58.6156L141.832 71.109C130.172 78.459 134.524 85.8931 134.715 86.2058L134.745 86.2599C141.207 97.9867 142.2 108.427 137.704 117.292C133.286 126.004 123.797 132.951 109.501 137.947C98.9599 141.63 89.8393 142.784 89.4564 142.832C86.0762 143.301 83.0131 143.803 80.2401 144.329C75.6873 148.748 64.0868 159.266 55.5825 160.55C55.412 160.574 55.2444 160.589 55.0739 160.589L55.068 160.586ZM75.7202 145.261C58.3435 149.169 54.5684 154.057 54.021 156.94C53.9582 157.27 54.0599 157.601 54.2992 157.851C54.5445 158.106 54.8825 158.223 55.2235 158.172C61.628 157.204 70.3926 150.098 75.7232 145.261H75.7202Z" fill="#F8F8F8"/>
<defs>
<linearGradient id="paint0_linear_881_41922" x1="3.02941" y1="32.8242" x2="225.051" y2="149.319" gradientUnits="userSpaceOnUse">
<stop stop-color="#6000A1"/>
<stop offset="1" stop-color="#00CAC6"/>
</linearGradient>
</defs>
</svg>
