<svg width="32" height="32" viewBox="0 0 32 32" fill="none" xmlns="http://www.w3.org/2000/svg">
<path fill-rule="evenodd" clip-rule="evenodd" d="M19.0494 15.7196L11.5803 8.24991C11.2875 7.95701 11.2875 7.48213 11.5804 7.18925C11.8733 6.89637 12.3482 6.89639 12.6411 7.1893L20.2631 14.812C20.2632 14.8121 20.2633 14.8123 20.2635 14.8124C20.3826 14.9315 20.4771 15.0728 20.5416 15.2283C20.6062 15.3841 20.6394 15.551 20.6394 15.7196C20.6394 15.8882 20.6062 16.0551 20.5416 16.2109C20.477 16.3666 20.3824 16.508 20.2632 16.6271C20.2631 16.6271 20.2631 16.6272 20.2631 16.6272L12.6411 24.2499C12.3482 24.5428 11.8733 24.5428 11.5804 24.25C11.2875 23.9571 11.2875 23.4822 11.5803 23.1893L19.0494 15.7196Z" fill="#4A566D"/>
</svg>
